<svg class="placeholder-svg w-full h-full" preserveAspectRatio="xMidYMid slice" width="448" height="448" viewBox="0 0 448 448" fill="none" xmlns="http://www.w3.org/2000/svg"><g clip-path="url(#clip0_662_1338)"><path d="M448 0H0v448h448V0Z" fill="#F2F2F2"></path><path d="m354.53 158.19-33.31-35.87a59.971 59.971 0 0 0-32.2-18.01l-20.99-4.2c-2.72-.49-5.45-.93-8.17-1.33l-.01.01v-.01c-1.29-.21-2.58-.31-3.88-.29-1.3.01-2.6.14-3.88.38l-7.25 1.36-7.08 1.33c-4.54.85-9.13 1.28-13.72 1.27-4.59 0-9.19-.42-13.72-1.27l-7.08-1.33-7.25-1.36c-1.28-.24-2.58-.37-3.88-.38-1.3-.02-2.6.08-3.88.29v.01l-.01-.01c-2.73.4-5.46.83-8.17 1.33l-20.99 4.2a59.971 59.971 0 0 0-32.2 18.01l-33.31 35.87c-3.03 3.26-2.81 8.37.48 11.36l32.37 29.43c3.16 2.87 8.02 2.76 11.04-.26l9.48-9.48c1.89-1.89 5.12-.55 5.12 2.12v136.76c0 4.42 3.58 8 8 8h128c4.42 0 8-3.58 8-8V191.36c0-2.67 3.23-4.01 5.12-2.12l9.48 9.48a7.994 7.994 0 0 0 11.04.26l32.37-29.43c3.29-2.99 3.51-8.1.48-11.36Zm-130.5-26.08h-.34.7H224.03Z" fill="#D6912B"></path><path d="m195.98 109.55 14.34 2.7c9.04 1.7 18.31 1.7 27.35 0l14.34-2.7c1.78-.33 3.58-.44 5.38-.33 1.27-3.27 2.09-6.77 2.35-10.43-2.56-.42-5.18-.39-7.73.09l-14.34 2.7c-9.04 1.7-18.31 1.7-27.35 0l-14.34-2.7c-2.55-.48-5.17-.51-7.73-.09.27 3.66 1.08 7.16 2.35 10.43 1.8-.1 3.61 0 5.38.33Z" fill="#D6912B"></path><path d="M296 292.11H152v12h144v-12ZM296 268.11H152v12h144v-12ZM296 244.11H152v12h144v-12ZM296 220.11H152v12h144v-12ZM296 196.11H152v12h144v-12ZM154.36 184.11h139.42c1.38 0 2.2-1.51 1.48-2.68-1.59-2.6-2.94-5.33-4.02-8.17-.26-.68-.9-1.14-1.64-1.14H158.53c-.73 0-1.38.46-1.64 1.14a48.009 48.009 0 0 1-4.02 8.17c-.72 1.18.1 2.68 1.48 2.68h.01Z" fill="#E8AF57"></path><path opacity=".1" d="M96.9 172.11h-.07l13.2 12h.07l-13.2-12ZM308.96 112.11h.03a60.273 60.273 0 0 0-6.34-3.4 59.83 59.83 0 0 1 6.31 3.4ZM300.63 107.83c.63.27 1.26.54 1.89.83-.62-.29-1.25-.56-1.89-.83ZM293.78 105.42c.68.19 1.36.4 2.03.62-.67-.22-1.35-.42-2.03-.62ZM298.42 106.95c.62.23 1.24.47 1.85.73-.61-.25-1.23-.49-1.85-.73ZM125.26 124.11h-.08l-11.15 12h.09l11.14-12Z" fill="#000"></path><path d="M161.82 148.11c-.97 0-1.75.78-1.75 1.75v6.15c0 .76-.02 1.52-.06 2.27-.05 1 .75 1.83 1.74 1.83h124.63c1 0 1.79-.83 1.74-1.83-.04-.76-.06-1.51-.06-2.27v-6.15c0-.97-.78-1.75-1.75-1.75h-124.5.01Z" fill="#E8AF57"></path><path opacity=".1" d="M102.97 148.11h-.08l-11.14 12h.08l11.14-12Z" fill="#000"></path><path d="M286.32 124.11h-124.5a1.75 1.75 0 0 0-1.75 1.75v8.5c0 .966.783 1.75 1.75 1.75h124.5a1.75 1.75 0 0 0 1.75-1.75v-8.5a1.75 1.75 0 0 0-1.75-1.75ZM188.44 100.86h-12.02c-5.47 1.09-10.95 2.17-16.42 3.26v.02h.07v6.22c0 .97.78 1.75 1.75 1.75h30.04a35.97 35.97 0 0 1-3.42-11.25ZM271.75 100.86h-12.2a35.97 35.97 0 0 1-3.42 11.25h30.11c.97 0 1.75-.78 1.75-1.75v-6.29c-5.42-1.07-10.83-2.14-16.25-3.2l.01-.01Z" fill="#E8AF57"></path><path d="m252.03 98.69-14.35 2.69a74.08 74.08 0 0 1-27.37 0l-14.35-2.69c-2.56-.48-5.17-.51-7.74-.09 1.36 18.63 16.85 33.32 35.78 33.32s34.41-14.69 35.78-33.32c-2.57-.42-5.18-.39-7.74.09h-.01Z" fill="#BD772A"></path><path d="m195.96 109.36 14.34 2.7c9.04 1.7 18.31 1.7 27.35 0l14.34-2.7c1.78-.33 3.58-.44 5.38-.33 1.27-3.27 2.09-6.77 2.35-10.43-2.56-.42-5.18-.39-7.73.09l-14.34 2.7c-9.04 1.7-18.31 1.7-27.35 0l-14.34-2.7c-2.55-.48-5.17-.51-7.73-.09.27 3.66 1.08 7.16 2.35 10.43 1.8-.1 3.61 0 5.38.33Z" fill="#D6912B"></path><path d="M232.38 112.11h-16.76a1.62 1.62 0 0 0-1.62 1.62v7.76c0 .895.725 1.62 1.62 1.62h16.76a1.62 1.62 0 0 0 1.62-1.62v-7.76a1.62 1.62 0 0 0-1.62-1.62Z" fill="#fff"></path><path d="M185.16 96.07c1.65-.29 3.18.86 3.45 2.52 2.73 17.09 17.53 30.16 35.39 30.16s32.66-13.06 35.39-30.16c.26-1.66 1.79-2.81 3.45-2.52l5.93 1.04c1.59.28 2.68 1.78 2.43 3.38-3.64 22.79-23.38 40.21-47.2 40.21-23.82 0-43.56-17.42-47.2-40.21-.25-1.6.84-3.1 2.43-3.38l5.93-1.04Z" fill="#995927"></path><path d="M293.86 195.51a74.154 74.154 0 0 0-10.11 51.02l.04.27c.53 3.19 1.18 6.58 1.84 10.38 1.52 8.8 2.26 17.72 2.26 26.65V295c0 14-9.37 26.26-22.87 29.95a89.888 89.888 0 0 1-42.54 1.17l-15.36-3.29a90.172 90.172 0 0 0-38.42.15l-16.73 3.73v1.41c0 4.42 3.58 8 8 8h128c4.42 0 8-3.58 8-8v-136l-2.1 3.4-.01-.01ZM354.53 158.19l-33.31-35.87a59.971 59.971 0 0 0-32.2-18.01l-17.92-3.58c-.57 3.35-1.49 6.59-2.72 9.67l12.12 2.42a59.971 59.971 0 0 1 32.2 18.01l33.31 35.87c2.32 2.49 2.73 6.07 1.32 8.95l6.71-6.1c3.29-2.99 3.51-8.1.48-11.36h.01Z" fill="#E8AF57"></path><path opacity=".35" d="M287.89 294.99c0 3.16-.5 6.22-1.39 9.12h9.47v-12h-8.07v2.88h-.01ZM287.84 280.11h8.12v-12h-8.85c.4 3.99.64 7.99.73 12ZM283.74 246.53l.04.27c.47 2.89 1.06 5.95 1.65 9.31h10.52v-12h-12.56c.11.81.21 1.61.34 2.42h.01ZM282.82 232.11h13.14v-12h-11.78c-.78 3.95-1.23 7.96-1.36 12ZM295.96 196.11h-2.46a73.944 73.944 0 0 0-5.86 12h8.32v-12Z" fill="#fff"></path><path d="M152 316.11h144v12c0 4.42-3.58 8-8 8H160c-4.42 0-8-3.58-8-8v-12Z" fill="#995927"></path><path opacity=".15" d="M265.01 324.94a89.888 89.888 0 0 1-42.54 1.17l-15.36-3.29a90.172 90.172 0 0 0-38.42.15l-16.7 3.72v1.42c0 4.42 3.58 8 8 8h127.96c4.42 0 8-3.58 8-8v-12h-16.39a30.96 30.96 0 0 1-14.56 8.83h.01Z" fill="#E8AF57"></path></g><defs><clipPath id="clip0_662_1338"><path fill="#fff" d="M0 0h448v448H0z"></path></clipPath></defs></svg>