<svg class="placeholder-svg w-full h-full" preserveAspectRatio="xMidYMid slice" width="449" height="448" viewBox="0 0 449 448" fill="none" xmlns="http://www.w3.org/2000/svg"><g clip-path="url(#clip0_662_1337)"><path d="M448.04 0H.04v448h448V0Z" fill="#F2F2F2"></path><path d="m354.57 158.19-33.31-35.87a59.971 59.971 0 0 0-32.2-18.01l-20.99-4.2c-2.72-.49-5.45-.93-8.17-1.33l-.01.01v-.01c-1.29-.21-2.58-.31-3.88-.29-1.3.01-2.6.14-3.88.38l-7.25 1.36-7.08 1.33c-4.54.85-9.13 1.28-13.72 1.27-4.59 0-9.19-.42-13.72-1.27l-7.08-1.33-7.25-1.36c-1.28-.24-2.58-.37-3.88-.38-1.3-.02-2.6.08-3.88.29v.01l-.01-.01c-2.73.4-5.46.83-8.17 1.33l-20.99 4.2a59.971 59.971 0 0 0-32.2 18.01l-33.31 35.87c-3.03 3.26-2.81 8.37.48 11.36l32.37 29.43c3.16 2.87 8.02 2.76 11.04-.26l9.48-9.48c1.89-1.89 5.12-.55 5.12 2.12v136.76c0 4.42 3.58 8 8 8h128c4.42 0 8-3.58 8-8V191.36c0-2.67 3.23-4.01 5.12-2.12l9.48 9.48a7.994 7.994 0 0 0 11.04.26l32.37-29.43c3.29-2.99 3.51-8.1.48-11.36Zm-130.5-26.08h-.34.7H224.07Z" fill="#6C7278"></path><path d="m252.07 98.87-14.35 2.69a74.08 74.08 0 0 1-27.37 0L196 98.87c-2.56-.48-5.17-.51-7.74-.09 1.36 18.63 16.85 33.32 35.78 33.32s34.41-14.69 35.78-33.32c-2.57-.42-5.18-.39-7.74.09h-.01Z" fill="#5B6167"></path><path d="m196.02 109.55 14.34 2.7c9.04 1.7 18.31 1.7 27.35 0l14.34-2.7c1.78-.33 3.58-.44 5.38-.33 1.27-3.27 2.09-6.77 2.35-10.43-2.56-.42-5.18-.39-7.73.09l-14.34 2.7c-9.04 1.7-18.31 1.7-27.35 0l-14.34-2.7c-2.55-.48-5.17-.51-7.73-.09.27 3.66 1.08 7.16 2.35 10.43 1.8-.1 3.61 0 5.38.33Z" fill="#6C7278"></path><path d="M232.42 112.11h-16.76a1.62 1.62 0 0 0-1.62 1.62v7.76c0 .895.725 1.62 1.62 1.62h16.76a1.62 1.62 0 0 0 1.62-1.62v-7.76a1.62 1.62 0 0 0-1.62-1.62Z" fill="#fff"></path><path d="M160.04 155.95v-51.88l-.95.19a60.02 60.02 0 0 0-32.2 18l-31.06 33.45 44.22 40.37 5.74-5.74a48.64 48.64 0 0 0 14.25-34.39ZM321.19 122.27a59.984 59.984 0 0 0-32.2-18l-.95-.19v51.88c0 12.9 5.12 25.27 14.25 34.39l5.79 5.76 44.2-40.36-31.09-33.48Z" fill="#818990"></path><path d="M174.04 226.11c0 2.82.24 5.59.69 8.29.16.98 1 1.71 1.99 1.71h94.65c.99 0 1.83-.73 1.99-1.71.45-2.7.69-5.47.69-8.29v-.02c0-1.1-.91-1.98-2.01-1.98h-95.98c-1.1 0-2.01.88-2.01 1.98v.02h-.01ZM270.5 216.11c1.31 0 2.28-1.24 1.95-2.52-5.56-21.56-25.13-37.48-48.42-37.48-23.29 0-42.86 15.93-48.42 37.48a2.02 2.02 0 0 0 1.95 2.52H270.5ZM178.58 246.95c.53 1.15 1.1 2.29 1.71 3.39.61 1.1 1.73 1.77 2.97 1.77h81.55c1.24 0 2.37-.69 2.97-1.77.6-1.08 1.18-2.24 1.71-3.39.61-1.33-.38-2.84-1.84-2.84h-87.22c-1.46 0-2.45 1.51-1.84 2.84h-.01ZM197.57 264.11c-1.99 0-2.78 2.59-1.12 3.69a49.713 49.713 0 0 0 27.59 8.31c10.2 0 19.68-3.06 27.59-8.31 1.66-1.1.87-3.69-1.12-3.69h-52.94Z" fill="#EB836F"></path><path d="m95.85 155.74-2.23 2.4c-3.03 3.26-2.81 8.37.48 11.36l32.37 29.43c3.16 2.87 8.02 2.76 11.04-.26l2.56-2.56-44.22-40.37ZM185.2 96.07c1.65-.29 3.18.86 3.45 2.52 2.73 17.09 17.53 30.16 35.39 30.16s32.66-13.06 35.39-30.16c.26-1.66 1.79-2.81 3.45-2.52l5.93 1.04c1.59.28 2.68 1.78 2.43 3.38-3.64 22.79-23.38 40.21-47.2 40.21-23.82 0-43.56-17.42-47.2-40.21-.25-1.6.84-3.1 2.43-3.38l5.93-1.04Z" fill="#42474C"></path><path d="M293.9 195.51a74.154 74.154 0 0 0-10.11 51.02l.04.27c.53 3.19 1.18 6.58 1.84 10.38 1.52 8.8 2.26 17.72 2.26 26.65V295c0 14-9.37 26.26-22.87 29.95a89.888 89.888 0 0 1-42.54 1.17l-15.36-3.29a90.172 90.172 0 0 0-38.42.15l-16.73 3.73v1.41c0 4.42 3.58 8 8 8h128c4.42 0 8-3.58 8-8v-136l-2.1 3.4-.01-.01Z" fill="#818990"></path><path d="m354.57 158.19-33.31-35.87a59.971 59.971 0 0 0-32.2-18.01l-17.92-3.58c-.57 3.35-1.49 6.59-2.72 9.67l12.12 2.42a59.971 59.971 0 0 1 32.2 18.01l33.31 35.87c2.32 2.49 2.73 6.07 1.32 8.95l6.71-6.1c3.29-2.99 3.51-8.1.48-11.36h.01Z" fill="#9FA5AB" opacity=".4"></path><path d="m352.29 155.74 2.23 2.4c3.03 3.26 2.81 8.37-.48 11.36l-32.37 29.43c-3.16 2.87-8.02 2.76-11.04-.26l-2.56-2.56 44.22-40.37Z" fill="#42474C"></path></g><defs><clipPath id="clip0_662_1337"><path fill="#fff" d="M.04 0h448v448H.04z"></path></clipPath></defs></svg>