<svg class="placeholder-svg w-full h-full" preserveAspectRatio="xMidYMid slice" width="448" height="448" viewBox="0 0 448 448" fill="none" xmlns="http://www.w3.org/2000/svg"><g clip-path="url(#clip0_894_1529)"><path d="M448 0H0v448h448V0Z" fill="#F2F2F2"></path><path d="m354.54 158.19-33.31-35.87a59.971 59.971 0 0 0-32.2-18.01l-20.99-4.2c-2.72-.49-5.45-.93-8.17-1.33l-.01.01v-.01c-1.29-.21-2.58-.31-3.88-.29-1.3.01-2.6.14-3.88.38l-7.25 1.36-7.08 1.33c-4.54.85-9.13 1.28-13.72 1.27-4.59 0-9.19-.42-13.72-1.27l-7.08-1.33-7.25-1.36c-1.28-.24-2.58-.37-3.88-.38-1.3-.02-2.6.08-3.88.29v.01l-.01-.01c-2.73.4-5.46.83-8.17 1.33l-20.99 4.2a59.971 59.971 0 0 0-32.2 18.01l-33.31 35.87c-3.03 3.26-2.81 8.37.48 11.36l32.37 29.43c3.16 2.87 8.02 2.76 11.04-.26l9.48-9.48c1.89-1.89 5.12-.55 5.12 2.12v136.76c0 4.42 3.58 8 8 8h128c4.42 0 8-3.58 8-8V191.36c0-2.67 3.23-4.01 5.12-2.12l9.48 9.48a7.994 7.994 0 0 0 11.04.26l32.37-29.43c3.29-2.99 3.51-8.1.48-11.36Zm-130.5-26.08h-.34.7H224.04Z" fill="#DD6A5A"></path><path d="m252.03 98.87-14.35 2.69a74.08 74.08 0 0 1-27.37 0l-14.35-2.69c-2.56-.48-5.17-.51-7.74-.09 1.36 18.63 16.85 33.32 35.78 33.32s34.41-14.69 35.78-33.32c-2.57-.42-5.18-.39-7.74.09h-.01Z" fill="#C03D37"></path><path d="m195.99 109.55 14.34 2.7c9.04 1.7 18.31 1.7 27.35 0l14.34-2.7c1.78-.33 3.58-.44 5.38-.33 1.27-3.27 2.09-6.77 2.35-10.43-2.56-.42-5.18-.39-7.73.09l-14.34 2.7c-9.04 1.7-18.31 1.7-27.35 0l-14.34-2.7c-2.55-.48-5.17-.51-7.73-.09.27 3.66 1.08 7.16 2.35 10.43 1.8-.1 3.61 0 5.38.33Z" fill="#CC5747"></path><path d="M232.38 112.11h-16.76a1.62 1.62 0 0 0-1.62 1.62v7.76c0 .895.725 1.62 1.62 1.62h16.76a1.62 1.62 0 0 0 1.62-1.62v-7.76a1.62 1.62 0 0 0-1.62-1.62Z" fill="#fff"></path><path d="M185.16 95.82c1.65-.29 3.18.86 3.45 2.52 2.73 17.09 17.53 30.16 35.39 30.16s32.66-13.06 35.39-30.16c.26-1.66 1.79-2.81 3.45-2.52l5.93 1.04c1.59.28 2.68 1.78 2.43 3.38-3.64 22.79-23.38 40.21-47.2 40.21-23.82 0-43.56-17.42-47.2-40.21-.25-1.6.84-3.1 2.43-3.38l5.93-1.04ZM95.82 155.74l-2.23 2.4c-3.03 3.26-2.81 8.37.48 11.36l32.37 29.43c3.16 2.87 8.02 2.76 11.04-.26l2.56-2.56-44.22-40.37Z" fill="#E8AF57"></path><path d="m354.541 158.19-33.31-35.87a59.971 59.971 0 0 0-32.2-18.01l-17.92-3.58c-.57 3.35-1.49 6.59-2.72 9.67l12.12 2.42a59.971 59.971 0 0 1 32.2 18.01l33.31 35.87c2.32 2.49 2.73 6.07 1.32 8.95l6.71-6.1c3.29-2.99 3.51-8.1.48-11.36h.01ZM293.9 195.51a74.154 74.154 0 0 0-10.11 51.02l.04.27c.53 3.19 1.18 6.58 1.84 10.38 1.52 8.8 2.26 17.72 2.26 26.65V295c0 14-9.37 26.26-22.87 29.95a89.888 89.888 0 0 1-42.54 1.17l-15.36-3.29a90.172 90.172 0 0 0-38.42.15l-16.73 3.73v1.41c0 4.42 3.58 8 8 8h128c4.42 0 8-3.58 8-8v-136l-2.1 3.4-.01-.01Z" fill="#E87E69"></path><path d="m352.26 155.74 2.23 2.4c3.03 3.26 2.81 8.37-.48 11.36l-32.37 29.43c-3.16 2.87-8.02 2.76-11.04-.26l-2.56-2.56 44.22-40.37Z" fill="#E8AF57"></path></g><defs><clipPath id="clip0_894_1529"><path fill="#fff" d="M0 0h448v448H0z"></path></clipPath></defs></svg>